<svg fill="none" viewBox="0 0 24 24" style="aspect-ratio: 24/24" xmlns="http://www.w3.org/2000/svg"><g fill="none" stroke="currentColor" stroke-linecap="round" stroke-width="1.5"><path d="m9 14h3"/><path d="m10 12v-3.8c0-.1858 0-.2787.0123-.35643.0678-.4279.4034-.76349.8313-.83126.0777-.01231.1706-.01231.3564-.01231h2.3c1.3807 0 2.5 1.11929 2.5 2.5 0 1.3807-1.1193 2.5-2.5 2.5zm0 0v5m0-5h-1"/><path d="m7 3.33782c1.47087-.85085 3.1786-1.33782 5-1.33782 5.5228 0 10 4.47715 10 10 0 5.5228-4.4772 10-10 10-5.52285 0-10-4.4772-10-10 0-1.8214.48697-3.52913 1.33782-5"/></g></svg>
